<?xml version="1.0" encoding="UTF-8"?>
<svg id="Layer_1" xmlns="http://www.w3.org/2000/svg" xmlns:xlink="http://www.w3.org/1999/xlink" version="1.1" viewBox="0 0 1920 1080">
  <!-- Generator: Adobe Illustrator 29.3.1, SVG Export Plug-In . SVG Version: 2.1.0 Build 151)  -->
  <defs>
    <style>
      .st0 {
        fill: url(#linear-gradient);
      }

      .st1 {
        fill: #56b2d9;
      }

      .st2 {
        fill: #fff;
      }
    </style>
    <linearGradient id="linear-gradient" x1="336.4" y1="1146.8" x2="677.8" y2="1146.8" gradientTransform="translate(-394.4 2204.3) scale(1.5 -1.5)" gradientUnits="userSpaceOnUse">
      <stop offset="0" stop-color="#146e94"/>
      <stop offset=".5" stop-color="#66c3ea"/>
      <stop offset=".5" stop-color="#146e94"/>
      <stop offset="1" stop-color="#66c3ea"/>
    </linearGradient>
  </defs>
  <path class="st0" d="M391.2,276.9l-3-2v-66.6l10.8,8c37.8,28.2,112.5,75.4,199.4,86,2.8-4.7,7.8-7.8,13.7-7.8,8.8,0,15.9,7.1,15.9,15.9s-7.1,15.9-15.9,15.9-12.8-4.4-15-10.6c-82.5-9.9-154-51.5-195.4-80.8v32.7c39.8,26.2,101.1,59.1,171.8,71.8l6.6,1.2-23.9,135c4.1,2.9,6.8,7.6,6.8,13,0,8.8-7.1,15.9-15.9,15.9s-15.9-7.1-15.9-15.9,5-13.5,11.8-15.4l21.5-121.8c-72-14.3-133.7-48.2-173.3-74.6h0ZM503.7,501.7l22-124.8c-65-18.2-120-49.4-157-74.4-37,25-92,56.2-157,74.4l22,124.8c10.9,61.6,47.9,115.4,101.5,147.7l33.5,20.1,33.5-20.1c53.6-32.2,90.6-86,101.5-147.7ZM465.2,688.8c-8.8,0-15.9,7.1-15.9,15.9s0,1.7.2,2.6c-3,2-6,3.9-9.1,5.7l-38.7,23.3v-31.5l24.8-14.9c47.5-28.5,84.8-71.6,106.5-122.4,8.4-.5,15-7.4,15-15.9s-7.1-15.9-15.9-15.9-15.9,7.1-15.9,15.9,1.6,8,4.3,10.9c-20.6,48-56,88.8-100.9,115.8l-31.4,18.9v63l59.2-35.6c3.3-2,6.5-4,9.8-6.2,2.4,1.4,5.1,2.2,8,2.2,8.8,0,15.9-7.1,15.9-15.9s-7.1-15.9-15.9-15.9h0ZM608.3,359.2c-8.8,0-15.9,7.1-15.9,15.9s2.7,10.1,6.8,13l-22.3,126.4c-7.8,44.2-25.9,86.1-52.5,122.1-1.1-.2-2.3-.4-3.5-.4-8.8,0-15.9,7.1-15.9,15.9s7.1,15.9,15.9,15.9,15.9-7.1,15.9-15.9-.6-5.1-1.8-7.3c28-37.7,47-81.7,55.2-128.1l22.3-126.4c6.8-1.8,11.8-8,11.8-15.4s-7.1-15.9-15.9-15.9v.2h0ZM217,562.5c2.7-2.8,4.3-6.7,4.3-10.9,0-8.8-7.1-15.9-15.9-15.9s-15.9,7.1-15.9,15.9,6.6,15.4,15,15.9c21.7,50.7,59,93.8,106.5,122.3l24.8,14.9v31.5l-38.7-23.3c-3.1-1.8-6.1-3.8-9.1-5.7.1-.8.2-1.7.2-2.6,0-8.8-7.1-15.9-15.9-15.9s-15.9,7.1-15.9,15.9,7.1,15.9,15.9,15.9,5.7-.8,8-2.2c3.2,2.1,6.5,4.2,9.8,6.2l59.2,35.6v-63l-31.4-18.9c-44.9-27-80.3-67.8-100.9-115.7ZM216.7,636.3c-1.2,0-2.4,0-3.5.4-26.6-36-44.7-78-52.5-122.1l-22.3-126.4c4.1-2.9,6.8-7.6,6.8-13,0-8.8-7.1-15.9-15.9-15.9s-15.9,7.1-15.9,15.9,5,13.5,11.8,15.4l22.3,126.4c8.2,46.3,27.2,90.3,55.2,128.1-1.1,2.2-1.8,4.6-1.8,7.3,0,8.8,7.1,15.9,15.9,15.9s15.9-7.1,15.9-15.9-7.1-15.9-15.9-15.9v-.2h0ZM125.4,326.2c6.9,0,12.8-4.4,15-10.6,82.5-9.9,154-51.5,195.4-80.8v32.7c-39.8,26.2-101.1,59.1-171.8,71.8l-6.6,1.2,23.9,135.1c-4.1,2.9-6.8,7.6-6.8,13,0,8.8,7.1,15.9,15.9,15.9s15.9-7.1,15.9-15.9-5-13.5-11.8-15.4l-21.5-121.9c72-14.3,133.7-48.2,173.3-74.6l3-2v-66.6l-10.8,8c-37.8,28.2-112.5,75.4-199.4,86-2.8-4.7-7.8-7.8-13.7-7.8-8.8,0-15.9,7.1-15.9,15.9s7.1,15.9,15.9,15.9h0Z"/>
  <path class="st1" d="M616,556.8h-34.8v-145.4h34.8v145.4Z"/>
  <path class="st2" d="M242.2,556.8h-33.2v-145.4h49.1l31.9,101.5,32.1-101.5h46.5v145.4h-32.5v-105.2l-33.4,105.2h-26.8l-33.8-105.6v105.6h0Z"/>
  <path class="st2" d="M425,556.8h-34.8v-145.4h34.8v145.4Z"/>
  <path class="st2" d="M505.1,559.5c-19.3,0-34.4-4.4-45.5-13.3-11.1-8.9-17.1-21.2-18.2-36.9h34.2c1.1,7.6,4.3,13.4,9.5,17.3,5.3,3.9,12.2,5.8,20.8,5.8s13.6-1.4,17.9-4.1c4.3-2.7,6.5-6.6,6.5-11.5v-.8c0-3.3-.9-6-2.8-8.2-1.8-2.2-5.2-4.1-10.1-5.9-4.9-1.7-11.9-3.4-21.1-5-17.5-3.2-30.2-8.2-38.1-15.1s-11.9-16.3-11.9-28.4v-1.4c0-8.9,2.4-16.5,7.3-23,4.8-6.5,11.5-11.5,20.1-15,8.5-3.6,18.3-5.3,29.2-5.3,17.1,0,30.9,4,41.5,12.1,10.7,8.1,16.6,19.7,17.8,35h-34.2c-.7-6.8-3.2-11.9-7.7-15.3-4.4-3.3-10.5-5-18.1-5s-12.8,1.4-16.4,4.3c-3.5,2.9-5.3,6.5-5.3,10.9v.6c0,2.7.7,5.2,2.1,7.3,1.4,2.1,4.4,4,9,5.6s11.4,3.2,20.6,4.7c16.7,2.7,29.5,7.5,38.7,14.3s13.7,16.4,13.7,29v1.6c0,9.4-2.6,17.5-7.7,24.4-5.1,6.8-12.1,12.1-21.1,15.8-8.9,3.7-19.2,5.5-30.8,5.5h0Z"/>
  <path class="st1" d="M670.5,556.8h-33v-145.4h40.3l55.1,96.4v-96.4h32.5v145.4h-38.3l-56.7-100.3v100.3h.1Z"/>
  <path class="st1" d="M820.1,556.8h-34.2v-145.4h102.4v28h-68.2v33.2h60.6v27.9h-60.6v56.3Z"/>
  <path class="st1" d="M971.8,559.5c-14.7,0-27.5-3.2-38.3-9.5s-19.1-15-25-26.1-8.8-23.6-8.8-37.7v-4.1c0-14.2,2.9-26.8,8.8-37.8,5.9-11,14.2-19.7,25-26s23.6-9.5,38.3-9.5,27.7,3.2,38.5,9.5,19.1,15,25,26,8.8,23.6,8.8,37.8v4.1c0,14.1-2.9,26.6-8.8,37.7-5.9,11.1-14.2,19.8-25,26.1s-23.6,9.5-38.5,9.5h0ZM971.8,531c11.7,0,20.7-4.1,27-12.2,6.3-8.1,9.4-19,9.4-32.6v-4.1c0-13.8-3.1-24.7-9.4-32.8-6.3-8.1-15.3-12.1-27-12.1s-20.7,4-26.9,12.1-9.3,19-9.3,32.8v4.1c0,13.6,3.1,24.5,9.4,32.6,6.3,8.1,15.2,12.2,26.8,12.2Z"/>
  <path class="st1" d="M1094.7,556.8h-34.2v-145.4h65.9c10.4,0,19.6,1.8,27.7,5.3s14.5,8.8,19.3,15.9c4.7,7,7.1,15.7,7.1,25.9v2c0,11.1-2.7,20.2-8.1,27.4-5.4,7.2-12.7,12.5-21.8,15.8l34.2,53h-37.9l-30.3-49.1h-21.9v49.1h0ZM1094.7,439.5v40.1h28.1c6.5,0,11.9-1.5,16-4.5s6.1-7.8,6.1-14.5v-2c0-6.7-2.1-11.5-6.1-14.5-4.1-3-9.4-4.5-16-4.5h-28.1Z"/>
  <path class="st1" d="M1229.2,556.8h-33.2v-145.4h49.1l31.9,101.5,32.1-101.5h46.5v145.4h-32.5v-105.2l-33.4,105.2h-26.8l-33.8-105.6v105.6h.1Z"/>
  <path class="st1" d="M1514.5,556.8h-36.2l-10-28.9h-55.7l-10,28.9h-35l54.6-145.4h37.7l54.6,145.4ZM1440.4,447.3l-18.4,53.6h37l-18.6-53.6Z"/>
  <path class="st1" d="M1559.2,556.8h-33v-145.4h40.3l55.1,96.4v-96.4h32.5v145.4h-38.3l-56.7-100.3v100.3h0Z"/>
  <path class="st1" d="M1743.6,556.8h-34.6v-117.3h-40.1v-28h114.6v28h-39.9v117.3Z"/>
</svg>